# xmcd
#
# Track frame offsets:
#	150
#	15526
#	33230
#	48789
#	62693
#	82472
#	94281
#	110619
#	127589
#	138066
#	157295
#	174820
#	197024
#	209875
#	232120
#	248400
#	266313
#	280747
#	291032
#	291590
#	298353
#	300829
#	301805
#
# Disc length: 4031 seconds
#
# Revision: 0
# Processed by: cddbd v1.5.2PL0 Copyright (c) Steve Scherf et al.
# Submitted via: EasyCDDAExtractor 10.2.0.1
#
DISCID=4d0fbd17
DTITLE=Various Artist - TeraJay Music Group Jan 06
DYEAR=2006
DGENRE=Gospel
TTITLE0=Branded - TooCool To Care
TTITLE1=Cross Country - Burn Bridges Burn
TTITLE2=Gala Earlene - Poor Little Rich Girl
TTITLE3=Morris Mott - Too Blessed To Be Stressed
TTITLE4=Mary James - Do You Know My Name
TTITLE5=Calvary Cowboys - I'm Not That Kind Of Daddy
TTITLE6=Justin Todd Herod - Lord Of The Rings
TTITLE7=Shara - Don't Look Back
TTITLE8=Michael Tetrick - Wanted Man
TTITLE9=Nannette Vaughan - I'll Build A Bridge
TTITLE10=Lawrence Bishop II - Which Side Of The Are You On
TTITLE11=Clay Jacobs - Tough As Nails
TTITLE12=Southern Faith - Give
TTITLE13=Threefold - I'm Forgiven
TTITLE14=Branded - Let It Begin With Me
TTITLE15=Last Light Band - Love Loved Me
TTITLE16=Justin Todd Herod - Raisin' Heaven
TTITLE17=Calvary Cowboys - 100 Proof
TTITLE18=Justin Todd - Liner
TTITLE19=Justin Todd - Intro "Lord Of The Rings"
TTITLE20=TeraJay - Track 21 30 Sec Ad
TTITLE21=Branded -  Liner
TTITLE22=Cross Country -  Liner
EXTD=
EXTT0=
EXTT1=
EXTT2=
EXTT3=
EXTT4=
EXTT5=
EXTT6=
EXTT7=
EXTT8=
EXTT9=
EXTT10=
EXTT11=
EXTT12=
EXTT13=
EXTT14=
EXTT15=
EXTT16=
EXTT17=
EXTT18=
EXTT19=
EXTT20=
EXTT21=
EXTT22=
PLAYORDER=
